<?xml version="1.0" standalone="no"?>
<!DOCTYPE svg PUBLIC "-//W3C//DTD SVG 20010904//EN"
 "http://www.w3.org/TR/2001/REC-SVG-20010904/DTD/svg10.dtd">
<svg version="1.0" xmlns="http://www.w3.org/2000/svg"
 width="736.000000pt" height="981.000000pt" viewBox="0 0 736.000000 981.000000"
 preserveAspectRatio="xMidYMid meet">

<g transform="translate(0.000000,981.000000) scale(0.100000,-0.100000)"
fill="#000000" stroke="none">
<path d="M6800 9522 c-41 -21 -120 -58 -175 -84 -214 -99 -405 -188 -510 -238
-116 -55 -220 -104 -345 -163 -69 -32 -419 -201 -855 -412 -163 -79 -383 -187
-1150 -565 -453 -223 -617 -303 -970 -470 -159 -76 -348 -165 -418 -199 -71
-33 -130 -61 -132 -61 -2 0 -75 -34 -162 -76 -268 -129 -361 -173 -578 -271
-115 -52 -334 -153 -485 -223 -342 -159 -394 -183 -500 -230 -47 -21 -141 -63
-210 -95 -69 -31 -132 -57 -141 -58 -9 -1 -15 -7 -12 -14 3 -7 8 -11 13 -8 7
5 12 -57 35 -475 14 -258 25 -485 45 -935 5 -121 13 -277 16 -346 7 -126 2
-179 -15 -179 -5 0 -12 8 -14 18 -4 13 -5 11 -6 -5 -1 -18 4 -23 22 -23 30 0
154 -66 477 -255 76 -45 251 -144 330 -188 30 -17 80 -47 110 -68 30 -20 118
-73 195 -117 221 -126 619 -368 663 -402 13 -11 29 -20 34 -20 5 0 21 -8 36
-19 60 -41 239 -150 257 -157 11 -4 22 -11 25 -15 3 -3 57 -37 120 -75 95 -56
207 -125 456 -281 10 -7 69 -43 129 -80 118 -72 174 -108 190 -121 6 -5 43
-28 84 -51 40 -24 141 -86 225 -139 83 -52 180 -113 216 -135 36 -22 74 -47
85 -56 21 -18 222 -148 278 -180 71 -41 274 -171 303 -195 18 -14 37 -26 43
-26 12 0 131 -77 141 -91 3 -4 28 -19 55 -34 28 -16 61 -37 75 -47 14 -11 54
-38 90 -60 36 -23 84 -54 107 -70 23 -15 44 -28 46 -28 3 0 45 -26 94 -59 48
-32 93 -60 99 -62 6 -2 104 -62 218 -134 215 -135 293 -183 613 -378 207 -125
243 -147 345 -214 36 -24 70 -43 76 -43 5 0 28 -14 51 -31 24 -17 45 -28 47
-26 3 3 8 106 11 230 l6 226 28 11 c56 24 56 23 63 315 3 149 8 331 11 405 3
74 10 401 15 725 14 838 19 1127 25 1395 3 129 7 390 10 580 3 190 8 401 10
470 2 69 7 220 10 335 8 289 19 581 55 1370 5 116 12 280 15 365 3 85 7 218
10 295 3 77 7 228 10 335 3 107 10 344 15 525 20 661 31 1425 22 1424 -4 0
-41 -17 -82 -37z m-80 -629 c-1 -383 -59 -1845 -70 -1758 -3 25 -8 35 -13 28
-10 -16 -63 -17 -73 -2 -4 8 -9 7 -16 -2 -7 -11 -11 -11 -15 -1 -6 16 -23 16
-23 -1 0 -7 6 -25 13 -40 9 -20 18 -25 38 -23 14 2 31 6 37 10 6 3 22 1 37 -6
20 -9 25 -18 23 -37 -2 -15 -8 -25 -16 -23 -8 1 -16 -7 -19 -18 -4 -15 -11
-19 -24 -15 -13 4 -19 1 -19 -9 0 -14 18 -20 58 -19 8 1 12 -21 12 -76 0 -91
-7 -122 -25 -114 -8 2 -39 -1 -69 -7 -49 -10 -56 -15 -56 -35 0 -16 -7 -25
-26 -29 -15 -4 -28 -5 -31 -2 -4 4 15 45 27 56 3 3 2 23 -1 45 -3 22 -7 32 -8
21 -1 -12 -6 -16 -17 -12 -13 5 -15 -1 -12 -30 2 -25 -3 -40 -15 -49 -9 -7
-17 -22 -17 -34 0 -12 -6 -21 -15 -21 -18 0 -20 37 -3 42 10 4 9 14 -1 46 -8
23 -19 42 -24 42 -5 0 -16 8 -23 18 -12 16 -13 16 -14 -4 0 -12 7 -24 15 -28
8 -3 15 -12 15 -21 0 -8 4 -15 10 -15 5 0 7 -7 4 -15 -4 -10 -13 -13 -25 -10
-14 5 -20 0 -25 -19 -3 -14 -3 -30 1 -35 3 -6 -1 -11 -10 -11 -8 0 -18 7 -21
15 -4 8 -13 15 -21 15 -9 0 -22 8 -29 18 -12 16 -13 15 -22 -8 l-10 -25 -12
30 c-11 26 -13 28 -23 13 -10 -15 -12 -15 -24 0 -12 16 -14 16 -24 0 -13 -24
-39 -23 -39 1 0 12 9 21 25 25 15 4 25 13 25 24 -1 15 -2 15 -16 -3 -11 -15
-17 -17 -23 -7 -5 9 -11 5 -21 -13 -13 -24 -17 -25 -92 -22 -52 1 -78 6 -78
14 0 18 -29 43 -43 37 -23 -8 -45 20 -51 68 -3 27 -1 50 4 53 6 3 10 14 10 24
0 10 7 24 15 31 8 7 15 18 15 25 0 17 -37 8 -53 -14 -7 -9 -29 -25 -49 -35
-31 -15 -40 -17 -53 -6 -15 13 -19 8 -16 -22 3 -23 -34 -24 -47 -3 -7 13 -11
11 -22 -10 -12 -23 -12 -28 0 -35 28 -18 65 -11 75 13 6 12 20 23 33 25 12 2
22 8 22 13 0 5 5 9 11 9 6 0 9 -6 6 -14 -3 -8 2 -16 15 -19 11 -3 17 -10 13
-16 -8 -14 -45 -14 -45 -1 0 19 -23 10 -52 -20 -15 -16 -37 -30 -47 -30 -11 0
-26 -7 -35 -15 -13 -13 -15 -13 -21 5 -3 11 -3 25 1 31 4 8 3 9 -4 5 -7 -4
-12 -16 -12 -26 0 -10 -4 -22 -10 -25 -6 -4 -10 7 -10 26 0 60 -24 14 -25 -48
-1 -53 -3 -58 -23 -56 -17 2 -22 -3 -22 -19 0 -21 -1 -21 -13 -4 -13 17 -14
17 -20 2 -6 -14 -10 -15 -28 -5 -34 17 -176 12 -210 -8 -16 -10 -29 -24 -30
-33 0 -13 -1 -13 -6 0 -4 8 -12 21 -20 28 -11 11 -16 11 -29 -2 -13 -13 -14
-22 -5 -46 8 -24 7 -30 -4 -30 -18 0 -23 18 -17 58 3 20 0 32 -7 32 -6 0 -11
-16 -11 -35 0 -19 -5 -35 -11 -35 -7 0 -8 11 -4 30 4 20 2 35 -9 45 -28 29
-47 13 -38 -33 l5 -25 13 24 c13 24 13 24 14 -8 0 -22 -5 -33 -14 -33 -8 0
-17 -7 -20 -16 -12 -30 -24 -4 -19 43 4 46 4 47 -13 28 -13 -16 -17 -17 -22
-6 -3 9 -9 5 -18 -15 -11 -26 -12 -27 -13 -6 -1 27 -9 28 -27 5 -10 -15 -15
-16 -25 -5 -18 17 -39 15 -84 -8 -30 -15 -41 -17 -47 -7 -5 9 -11 8 -25 -5
-15 -16 -18 -16 -34 -2 -25 23 -101 23 -124 1 -9 -10 -24 -16 -31 -13 -8 3
-14 1 -14 -4 0 -6 -9 -10 -20 -10 -11 0 -20 -4 -20 -9 0 -5 -8 -7 -17 -5 -10
3 -30 -6 -45 -21 -15 -14 -32 -25 -38 -25 -5 0 -10 -4 -10 -10 0 -5 -4 -10 -9
-10 -5 0 -7 9 -4 20 6 24 -9 26 -28 4 -12 -14 -14 -14 -21 6 -5 14 -13 20 -23
16 -8 -3 -22 -9 -30 -12 -8 -3 -15 -1 -15 6 0 6 9 14 20 17 11 3 17 9 14 14
-3 5 0 9 5 9 6 0 11 10 11 23 -1 21 -2 20 -16 -5 -17 -32 -33 -36 -36 -10 0 9
-4 -3 -8 -28 -7 -43 -7 -42 -10 25 -3 63 -4 66 -10 30 l-7 -40 -3 35 -2 35 -9
-44 c-10 -53 -21 -79 -15 -36 3 17 1 37 -5 45 -7 12 -9 9 -10 -10 -1 -23 -2
-23 -9 5 l-8 30 -1 -29 c-1 -28 -2 -29 -16 -10 -14 19 -14 19 -16 -1 -1 -11 0
-30 1 -42 1 -13 -4 -23 -11 -23 -8 0 -10 11 -6 35 3 19 1 37 -4 40 -5 4 -9
-10 -9 -29 0 -41 -17 -48 -26 -11 -9 38 -84 73 -84 41 0 -21 21 -31 31 -15 6
10 9 7 9 -12 0 -23 -3 -26 -26 -21 -20 3 -26 0 -31 -17 -10 -39 -23 -21 -23
33 0 74 -16 79 -26 8 -7 -51 -8 -54 -15 -27 -6 28 -7 26 -9 -15 l-3 -45 -7 45
c-4 25 -8 35 -8 23 -1 -14 -7 -20 -15 -17 -26 10 -50 -21 -49 -64 1 -23 -3
-44 -8 -47 -12 -7 -13 1 -10 84 1 41 -2 61 -8 57 -6 -3 -13 2 -15 11 -8 32 -7
-224 3 -632 6 -220 13 -537 16 -705 5 -279 11 -515 13 -581 1 -19 8 -29 24
-33 18 -5 19 -8 7 -16 -12 -8 -13 -13 -2 -30 7 -11 10 -31 6 -45 -3 -14 -3
-33 1 -42 12 -29 27 23 19 65 -6 29 -4 34 8 29 9 -3 21 0 27 6 7 7 23 12 36
12 21 1 25 -4 26 -30 l1 -30 11 28 c9 22 16 27 32 21 11 -3 41 -9 68 -11 32
-3 52 -11 61 -25 13 -19 14 -19 19 -1 4 15 6 15 13 -6 7 -23 8 -24 15 -5 7 16
8 17 8 2 1 -10 6 -18 12 -18 5 0 7 5 3 11 -5 8 5 10 32 5 22 -3 47 -6 57 -7 9
0 17 -3 17 -7 0 -4 18 -6 41 -4 l40 4 -26 -26 c-27 -27 -45 -33 -45 -16 0 5
-7 7 -15 4 -8 -4 -15 -1 -15 5 0 6 -7 8 -15 5 -27 -11 -17 -41 17 -53 17 -6
34 -7 37 -3 3 5 14 11 24 15 9 3 17 13 17 22 0 8 7 15 15 15 9 0 18 6 21 14 3
8 13 12 25 9 23 -6 24 -12 4 -40 -15 -22 -15 -22 17 -11 18 6 37 15 42 19 13
12 29 11 22 0 -3 -5 1 -11 9 -15 9 -3 15 0 15 9 0 8 5 15 10 15 6 0 10 -8 10
-17 0 -10 4 -14 8 -8 6 9 25 11 45 5 10 -3 28 -5 135 -15 51 -4 95 -12 98 -16
3 -5 1 -9 -5 -9 -16 0 -7 -55 9 -56 43 -3 50 -5 50 -14 0 -5 -13 -10 -30 -10
-28 0 -30 -3 -30 -35 0 -25 4 -35 15 -35 20 0 59 -36 48 -43 -5 -3 -15 -2 -23
4 -22 13 -27 11 -33 -11 -4 -17 0 -20 23 -20 16 0 30 6 33 13 3 9 9 9 26 -1
25 -15 29 2 4 18 -16 9 -15 10 5 5 15 -4 22 -2 22 7 0 15 -35 48 -50 48 -6 0
-10 5 -10 10 0 14 37 13 46 -1 5 -8 10 -6 16 5 11 19 -3 47 -37 74 -28 22 -34
48 -9 38 9 -3 27 -6 40 -6 16 0 24 -6 25 -17 0 -11 3 -13 6 -5 6 14 43 16 43
2 0 -6 15 -8 36 -4 19 3 41 1 48 -5 8 -6 21 -9 30 -5 12 5 16 0 16 -19 0 -16
7 -26 20 -30 19 -5 24 3 21 31 -3 24 16 12 30 -20 14 -31 43 -52 37 -28 -2 7
3 15 10 17 6 3 12 0 12 -6 0 -6 5 -11 10 -11 6 0 10 7 10 15 0 26 27 16 34
-12 10 -36 -14 -61 -37 -39 -12 12 -17 13 -24 3 -11 -14 -2 -128 10 -127 4 0
21 0 38 0 22 0 32 5 36 20 3 12 14 20 27 20 17 0 18 2 6 10 -8 5 -11 12 -7 17
9 8 39 -8 41 -22 0 -6 -11 -11 -26 -13 -16 -2 -28 -8 -28 -14 0 -5 7 -7 16 -4
9 3 29 6 45 6 21 0 32 6 39 23 6 15 9 17 9 6 1 -20 35 -31 50 -16 8 8 11 7 11
-3 0 -10 3 -11 11 -3 6 6 18 9 25 6 18 -7 18 14 0 24 -27 15 -24 93 3 100 11
3 22 12 24 22 3 11 5 10 6 -5 1 -15 9 -23 29 -27 34 -7 49 7 58 57 l7 39 -36
-6 c-20 -3 -39 -2 -42 3 -3 5 5 10 17 12 16 2 22 9 20 22 -3 15 1 17 22 12 15
-4 28 -1 33 6 15 24 42 143 43 186 0 23 6 58 14 77 8 18 12 36 8 39 -3 3 3 6
14 5 23 -1 94 -27 79 -29 -5 -1 -1 -5 10 -10 11 -5 51 -6 90 -3 53 5 75 11 94
29 14 13 30 24 36 23 5 0 4 -3 -2 -6 -22 -8 -14 -21 15 -27 15 -3 72 -8 127
-12 105 -6 145 -17 112 -30 -10 -3 -38 -4 -63 0 -29 4 -43 2 -39 -4 3 -6 13
-10 21 -10 8 0 14 -7 14 -15 0 -24 37 -33 164 -41 64 -4 119 -10 122 -15 2 -4
2 -20 -2 -34 -6 -23 -10 -26 -33 -20 -49 13 -65 15 -175 20 -61 3 -121 8 -133
10 -12 3 -32 1 -45 -4 l-23 -10 25 -1 25 -2 -24 -7 c-32 -9 -38 -28 -12 -36
25 -8 27 -21 5 -33 -12 -7 -6 -12 28 -25 24 -10 49 -17 56 -17 7 0 13 -7 13
-15 1 -14 3 -20 8 -42 2 -5 6 1 11 12 14 32 12 -8 -1 -42 -6 -15 -11 -47 -10
-70 1 -24 -2 -51 -8 -61 -16 -30 3 -45 63 -50 l56 -4 -16 48 c-9 27 -21 57
-25 66 -12 23 -11 28 1 28 6 0 10 -7 10 -15 0 -8 4 -15 10 -15 5 0 7 21 3 51
-6 50 -5 51 15 40 29 -16 42 -14 42 7 1 16 1 16 11 0 15 -27 27 -21 31 15 2
17 8 31 14 30 7 -1 26 2 44 7 l33 9 -7 -227 c-3 -125 -10 -459 -16 -742 -10
-511 -20 -782 -28 -747 -3 14 -10 17 -26 13 -13 -3 -35 3 -55 15 -44 27 -161
70 -171 64 -14 -9 -99 14 -190 49 -47 19 -128 44 -180 56 -52 12 -149 37 -215
55 -66 19 -142 39 -170 45 -73 17 -105 31 -105 45 0 6 -8 19 -17 28 -16 13
-17 28 -12 104 3 48 2 95 -3 103 -5 11 -7 9 -8 -8 0 -22 -1 -22 -30 -7 -16 8
-37 15 -47 15 -10 0 -27 8 -38 17 -22 17 -23 17 53 -3 15 -4 22 -2 22 7 0 22
-17 42 -29 35 -13 -8 -81 14 -81 26 0 4 10 8 23 9 12 1 39 3 59 4 31 3 40 0
50 -18 7 -12 11 -25 10 -29 -1 -5 3 -8 8 -8 6 0 10 16 10 35 0 34 -8 41 -47
36 -6 -1 -14 3 -18 9 -8 13 -48 13 -79 -1 -16 -8 -26 -23 -31 -45 -3 -21 -12
-34 -21 -34 -8 0 -13 4 -9 10 10 16 -6 60 -22 60 -11 0 -14 -8 -11 -30 5 -32
-2 -36 -33 -19 -11 6 -44 17 -74 24 -29 8 -68 23 -87 35 -18 11 -43 20 -56 20
-13 0 -35 6 -50 14 -15 7 -45 17 -67 20 -22 4 -78 20 -125 36 -47 15 -105 33
-130 40 -25 7 -85 27 -135 46 -49 18 -141 49 -204 69 -62 19 -119 39 -125 42
-6 4 -15 8 -21 10 -26 5 -57 14 -140 41 l-90 29 -7 -41 c-4 -23 -6 -255 -3
-516 4 -466 -6 -535 -19 -140 -4 107 -12 217 -18 243 -7 35 -7 52 1 60 14 14
14 54 1 62 -5 3 -10 23 -10 45 0 24 -5 40 -15 44 -9 3 -15 0 -15 -10 0 -8 5
-12 10 -9 5 3 10 1 10 -4 0 -6 -5 -11 -11 -11 -6 0 -9 -9 -6 -20 3 -11 -1 -27
-9 -34 -18 -19 -18 -26 1 -26 8 0 15 -4 15 -9 0 -21 -13 -41 -26 -41 -11 0
-14 -23 -14 -110 0 -67 -4 -110 -10 -110 -5 0 -10 -11 -10 -25 0 -14 -4 -25
-8 -25 -4 0 -13 -18 -19 -40 -9 -35 -8 -40 6 -40 14 -1 14 -2 0 -13 -8 -7 -18
-20 -22 -29 -3 -10 -11 -18 -16 -18 -5 0 -12 -21 -16 -47 -6 -38 -9 -44 -16
-28 -7 18 -8 18 -9 -5 -1 -23 -2 -23 -10 -5 -5 11 -9 65 -9 120 -1 55 -6 107
-12 115 -9 13 -10 13 -8 0 1 -8 -5 -32 -14 -52 -10 -21 -17 -42 -17 -48 0 -5
-4 -10 -10 -10 -5 0 -10 -15 -10 -32 0 -25 -3 -29 -10 -18 -5 8 -10 46 -10 85
0 64 -12 81 -22 30 -2 -11 -10 -21 -19 -23 -13 -2 -18 9 -23 47 -4 28 -11 53
-16 56 -6 3 -10 16 -10 28 -1 27 -36 71 -50 62 -5 -3 -10 -19 -10 -34 0 -30
-29 -67 -31 -40 0 8 -4 5 -8 -6 -8 -20 -20 64 -23 163 -1 24 -5 45 -10 48 -4
3 -8 -2 -8 -10 0 -33 -16 -22 -17 12 -1 46 -14 132 -20 132 -15 0 -32 -34 -43
-83 -17 -72 -36 -62 -38 19 -1 32 -6 62 -12 68 -5 5 -11 21 -12 36 -1 14 -5
-20 -8 -75 l-6 -100 -2 145 c-2 80 -7 251 -12 380 -5 129 -12 492 -15 805 -6
540 -14 988 -35 1970 -13 607 -13 655 4 655 8 0 17 6 19 13 3 7 6 5 6 -5 1
-25 18 -22 26 3 6 17 9 18 16 8 6 -11 9 -10 15 4 4 10 13 16 21 13 8 -3 11 -2
8 3 -9 16 15 24 30 11 14 -12 19 -7 16 14 -1 5 5 6 13 3 9 -4 32 1 52 9 20 8
41 13 47 11 7 -2 17 3 23 12 10 12 15 13 27 3 12 -10 15 -9 19 6 3 11 32 29
74 46 38 16 93 39 122 53 29 14 61 23 71 20 12 -3 21 5 30 25 9 21 16 26 21
18 9 -14 88 -8 99 7 11 14 71 32 77 22 3 -5 13 -8 22 -8 15 1 15 2 0 6 -23 6
-23 23 0 23 10 0 28 7 40 16 13 9 34 14 47 11 14 -2 22 -1 20 3 -6 9 56 40 78
40 13 0 86 30 182 75 17 8 51 23 78 34 26 11 47 25 47 30 0 9 32 24 55 26 26
2 125 36 130 45 8 12 -8 13 -21 1 -5 -5 -20 -12 -34 -15 -17 -4 -12 0 13 14
22 12 44 19 51 17 7 -3 18 4 25 15 10 16 20 19 44 15 18 -3 26 -3 20 0 -19 7
-16 23 5 23 9 0 31 10 47 21 l30 21 -30 -7 c-16 -4 -26 -3 -22 2 5 4 23 8 40
8 18 0 34 5 35 10 9 25 27 36 50 30 13 -3 21 -2 18 4 -9 15 22 21 51 10 22 -8
24 -8 14 5 -10 12 -5 18 30 37 24 12 55 25 69 30 14 4 67 26 118 48 96 43 118
49 106 29 -4 -7 -3 -8 5 -4 6 4 9 11 7 15 -5 8 32 26 164 81 41 17 89 37 105
45 17 7 64 27 105 43 102 40 363 148 457 189 67 28 115 43 126 36 5 -3 7 -2 4
3 -6 11 1 14 153 75 58 24 113 42 123 41 9 0 15 3 12 8 -8 12 31 22 58 15 15
-4 18 -3 9 3 -11 8 -11 10 0 15 106 42 119 46 113 35 -4 -7 -1 -6 7 2 12 15
54 38 71 39 4 1 7 -25 7 -56z m-3951 -2063 c6 -250 16 -684 21 -965 17 -905
20 -1047 25 -1230 3 -99 8 -455 11 -792 l7 -612 -22 6 c-11 3 -19 9 -16 13 3
5 2 15 -1 24 -5 12 -10 13 -25 5 -23 -12 -39 -4 -39 19 0 12 -3 13 -12 4 -9
-9 -27 -3 -80 25 -37 21 -68 41 -68 45 0 4 -9 8 -21 8 -12 0 -33 13 -47 28
-38 40 -79 65 -97 58 -8 -3 -25 5 -37 18 -24 25 -72 53 -224 130 -139 72 -355
186 -401 212 l-41 24 -6 82 c-3 46 -8 196 -12 333 -4 138 -7 258 -8 268 0 12
-13 21 -43 29 l-43 10 -2 54 c-4 117 -6 109 25 106 15 -2 27 1 27 7 0 6 -11
11 -25 11 -14 0 -25 3 -25 7 0 3 11 21 25 39 35 46 31 67 -5 24 l-29 -35 -3
83 c-1 45 -2 92 -2 105 -1 17 5 23 25 25 23 3 27 9 32 50 9 79 22 102 57 102
16 0 30 -4 30 -8 0 -5 18 -9 40 -10 30 -1 40 2 40 13 0 8 9 15 21 15 16 0 19
-4 14 -20 -6 -18 -2 -20 44 -20 31 0 51 -4 51 -11 0 -8 -22 -9 -71 -4 -85 9
-88 6 -90 -85 -1 -36 -4 -55 -6 -42 -2 12 -8 20 -13 17 -5 -3 -13 14 -18 37
-6 24 -10 35 -11 26 -1 -21 -16 -24 -27 -6 -8 13 -22 -14 -23 -44 -1 -24 16
-23 24 2 15 47 22 11 20 -107 -3 -158 -2 -153 -19 -153 -8 0 -12 -8 -9 -23 4
-19 10 -22 51 -20 l47 2 -37 -11 c-64 -19 -42 -30 55 -27 79 2 92 1 91 -13 -3
-33 316 -37 411 -6 l40 13 2 65 c1 49 -3 68 -15 78 -14 11 -15 16 -2 45 9 21
14 72 14 147 l1 115 -125 3 c-82 2 -127 7 -132 15 -4 7 -8 8 -8 2 0 -6 -25 -8
-62 -6 l-63 5 45 7 c62 10 186 9 145 -1 -20 -5 8 -8 81 -9 99 -1 112 1 115 17
3 14 -6 935 -10 1022 -1 20 -3 22 -11 10 -8 -13 -11 -13 -19 -1 -13 20 -30 5
-23 -21 3 -14 2 -19 -6 -14 -20 12 -33 -3 -22 -25 9 -16 7 -19 -11 -19 -14 0
-19 -5 -16 -14 3 -8 0 -19 -6 -25 -14 -11 -111 -10 -123 2 -12 12 -34 8 -51
-9 -12 -12 -18 -13 -24 -3 -6 10 -16 10 -43 2 -28 -9 -39 -8 -49 1 -17 17 -74
36 -83 28 -3 -4 -5 0 -2 8 3 8 13 17 24 18 32 6 37 19 15 41 -12 12 -21 25
-21 30 0 5 -12 19 -27 31 -20 16 -36 20 -58 16 -61 -13 -70 -12 -89 6 -21 19
-116 27 -116 9 0 -13 -40 -21 -41 -8 0 7 -2 19 -3 27 -2 8 -6 96 -10 195 -4
99 -9 212 -13 251 l-5 71 41 7 c24 3 41 12 41 19 0 7 24 23 53 34 212 86 458
187 602 248 94 40 238 100 320 134 83 34 159 65 170 70 11 5 23 6 27 2 3 -3
11 -211 17 -461z m3028 104 c-3 -3 -12 -4 -19 -1 -8 3 -5 6 6 6 11 1 17 -2 13
-5z m3 -120 c0 -8 -4 -12 -10 -9 -5 3 -10 10 -10 16 0 5 5 9 10 9 6 0 10 -7
10 -16z m655 -34 c3 -5 1 -10 -4 -10 -6 0 -11 5 -11 10 0 6 2 10 4 10 3 0 8
-4 11 -10z m-895 -36 c0 -13 -4 -24 -10 -24 -5 0 -10 14 -10 31 0 17 4 28 10
24 6 -3 10 -17 10 -31z m34 -8 c-6 -16 -8 -17 -16 -2 -11 19 0 42 13 29 6 -6
7 -18 3 -27z m46 -6 c0 -5 -4 -10 -10 -10 -5 0 -10 5 -10 10 0 6 5 10 10 10 6
0 10 -4 10 -10z m-4176 -27 c2 -10 8 -80 12 -156 l6 -137 -63 26 c-35 14 -75
30 -88 36 -16 6 -21 12 -13 17 6 4 -24 22 -71 43 -117 51 -127 53 -122 29 3
-17 1 -19 -19 -10 -22 10 -38 7 -131 -27 -13 -4 -17 -4 -10 3 6 5 53 25 105
42 52 18 102 36 110 39 8 3 19 4 24 3 17 -4 76 21 71 30 -4 5 0 9 7 10 60 4
72 6 75 16 3 7 10 10 18 7 8 -3 22 -1 32 6 16 9 15 10 -7 5 -20 -4 -18 -1 10
14 43 25 47 25 54 4z m4336 6 c0 -26 -22 -50 -41 -44 -11 4 -19 2 -19 -5 0 -6
-12 -16 -27 -22 -31 -12 -163 -15 -181 -5 -6 4 -13 3 -17 -3 -3 -5 -11 -10
-17 -10 -12 0 -3 59 11 73 5 5 6 -2 4 -16 -5 -24 -3 -25 41 -20 29 4 46 2 46
-5 0 -12 54 -9 93 7 15 6 27 15 27 20 0 11 47 38 68 40 6 1 12 -4 12 -10z m90
-4 c0 -8 5 -15 12 -15 6 0 9 -2 7 -5 -7 -7 -69 18 -69 27 0 4 11 8 25 8 16 0
25 -6 25 -15z m160 -21 c0 -8 -6 -14 -14 -14 -12 0 -14 10 -7 38 3 10 21 -11
21 -24z m160 -9 c0 -8 -4 -15 -10 -15 -5 0 -10 7 -10 15 0 8 5 15 10 15 6 0
10 -7 10 -15z m-850 -25 c29 -25 35 -25 60 2 17 19 20 19 20 4 0 -11 6 -16 18
-14 10 2 17 -3 17 -12 0 -8 -6 -14 -14 -12 -7 1 -20 -3 -29 -10 -12 -10 -16
-10 -19 0 -3 6 -13 12 -24 12 -28 0 -89 27 -89 39 0 18 35 12 60 -9z m-80 0
c0 -5 -7 -10 -15 -10 -8 0 -15 5 -15 10 0 6 7 10 15 10 8 0 15 -4 15 -10z
m989 -21 c11 -19 11 -21 -4 -15 -9 3 -19 6 -21 6 -2 0 -4 7 -4 15 0 21 13 19
29 -6z m-429 -5 c8 -9 -24 -24 -52 -24 -14 0 -29 -6 -32 -12 -3 -7 -3 -2 0 12
4 14 12 28 18 33 10 7 56 1 66 -9z m-861 -18 c-2 -2 -17 -6 -32 -10 -22 -5
-28 -3 -25 6 3 7 12 13 21 13 8 0 19 4 24 8 4 5 9 3 11 -3 2 -6 2 -13 1 -14z
m216 15 c3 -5 1 -13 -5 -16 -15 -9 -43 3 -35 15 8 13 32 13 40 1z m-337 -15
c27 -1 47 -6 50 -14 3 -9 -6 -11 -36 -6 -34 5 -42 3 -53 -14 -7 -11 -19 -18
-26 -15 -7 3 -21 -1 -30 -8 -25 -22 -95 -18 -114 6 -15 17 -21 18 -58 9 -42
-12 -47 -9 -32 15 7 10 21 12 57 7 89 -13 108 -12 143 11 18 13 38 20 44 16 6
-3 31 -7 55 -7z m-321 -48 c-2 -13 -4 -5 -4 17 -1 22 1 32 4 23 2 -10 2 -28 0
-40z m-401 5 c-11 -11 -19 6 -11 24 8 17 8 17 12 0 3 -10 2 -21 -1 -24z m21
15 c-3 -8 -6 -5 -6 6 -1 11 2 17 5 13 3 -3 4 -12 1 -19z m1573 -2 c0 -3 -4 -8
-10 -11 -5 -3 -10 -1 -10 4 0 6 5 11 10 11 6 0 10 -2 10 -4z m-1674 -26 c8 0
14 -10 14 -22 0 -20 -1 -21 -20 -3 -11 10 -20 25 -19 34 0 10 2 12 6 4 2 -7
11 -13 19 -13z m1932 8 c9 -9 12 -9 12 2 0 7 2 11 5 8 11 -10 -8 -38 -25 -38
-24 0 -46 26 -28 33 20 8 23 8 36 -5z m-1481 -30 c-3 -7 -5 -2 -5 12 0 14 2
19 5 13 2 -7 2 -19 0 -25z m511 6 c-4 -3 -12 -6 -20 -8 -7 -1 -19 -5 -25 -9
-8 -5 -13 -3 -13 5 0 17 42 37 54 26 5 -4 7 -10 4 -14z m19 4 c-3 -8 -6 -5 -6
6 -1 11 2 17 5 13 3 -3 4 -12 1 -19z m-1182 3 c3 -5 1 -12 -5 -16 -5 -3 -10 1
-10 9 0 18 6 21 15 7z m1265 -12 c0 -18 -2 -19 -15 -9 -15 12 -12 30 6 30 5 0
9 -10 9 -21z m300 6 c0 -8 -9 -15 -19 -15 -10 0 -21 7 -25 15 -4 11 1 15 19
15 16 0 25 -6 25 -15z m40 0 c0 -8 -4 -15 -10 -15 -5 0 -7 7 -4 15 4 8 8 15
10 15 2 0 4 -7 4 -15z m-976 -9 c-3 -8 -20 -18 -37 -22 -18 -3 -38 -11 -46
-17 -10 -9 -13 -7 -10 8 3 12 18 25 39 32 47 16 60 16 54 -1z m705 5 c11 -7 9
-10 -8 -16 -25 -8 -36 -2 -26 14 8 13 15 14 34 2z m-1244 -23 c-10 -31 -25
-47 -25 -26 0 24 11 48 22 48 5 0 6 -10 3 -22z m885 12 c0 -5 -4 -10 -9 -10
-5 0 -18 -3 -28 -7 -16 -6 -16 -5 -4 10 15 19 41 23 41 7z m120 1 c0 -12 -20
-25 -27 -18 -7 7 6 27 18 27 5 0 9 -4 9 -9z m-282 -28 c2 -16 -2 -23 -12 -23
-9 0 -16 4 -16 10 0 9 -26 8 -82 -6 -16 -3 -28 -2 -28 2 1 17 65 43 100 41 28
-2 36 -7 38 -24z m-3767 4 c-26 -12 -26 -12 5 -172 9 -49 16 -107 15 -127 -1
-26 4 -40 16 -47 16 -9 16 -12 3 -21 -12 -8 -13 -13 -2 -30 6 -11 12 -26 12
-34 0 -8 5 -16 12 -18 14 -5 38 -159 26 -172 -4 -6 -8 -19 -8 -30 0 -17 2 -18
9 -7 13 21 21 -47 24 -215 1 -78 5 -140 10 -137 4 2 7 -7 7 -21 0 -14 -4 -26
-10 -26 -5 0 -10 -7 -10 -15 0 -18 -16 -20 -23 -2 -4 9 -6 9 -6 0 -1 -6 4 -15
10 -18 6 -5 4 -12 -8 -21 -17 -13 -17 -15 2 -30 14 -11 16 -18 8 -21 -16 -6
-18 -99 -3 -108 6 -3 10 -15 10 -26 0 -10 4 -19 10 -19 5 0 7 -7 4 -15 -4 -8
-2 -15 3 -15 4 0 14 -9 21 -21 11 -17 11 -20 0 -14 -10 6 -11 5 0 -6 9 -10 59
-14 197 -17 l185 -4 0 25 c0 24 2 25 38 20 47 -8 61 -26 24 -32 -23 -4 -22 -5
13 -10 39 -6 40 -7 42 -46 1 -22 6 -121 12 -220 5 -99 12 -341 16 -537 l6
-357 -304 152 -304 151 -7 116 c-19 344 -21 366 -27 320 -6 -45 -6 -45 -7 -7
-1 20 -6 37 -11 37 -6 0 -12 -17 -14 -37 -2 -25 -5 -14 -7 32 -4 92 -4 92 -13
101 -4 4 -7 -103 -7 -239 l0 -246 -62 30 c-35 17 -86 42 -114 57 l-51 25 -12
221 c-19 324 -23 456 -14 456 4 0 5 78 2 172 -3 95 -6 381 -7 634 -2 424 -1
462 15 475 11 9 14 10 9 2 -5 -9 -2 -11 8 -7 8 3 17 13 21 22 5 14 7 14 16 2
8 -11 12 -12 16 -2 2 6 11 12 19 12 8 0 14 4 14 10 0 9 35 9 43 -1 5 -5 23
-319 57 -1014 11 -221 18 -338 30 -495 7 -90 7 -92 9 -27 l1 67 30 0 c28 0 30
3 30 36 0 34 -1 35 -30 29 -30 -6 -30 -6 -30 34 0 39 2 41 30 41 35 0 34 -17
20 240 -30 562 -49 956 -51 1064 -2 101 4 116 41 115 9 0 5 -5 -9 -12z m4862
-2 c-3 -9 -8 -14 -10 -11 -3 3 -2 9 2 15 9 16 15 13 8 -4z m135 -6 l27 -21
-25 7 c-14 4 -32 13 -40 21 -24 23 8 17 38 -7z m-1846 -11 c12 -14 15 -24 8
-26 -14 -5 -40 17 -40 34 0 20 10 17 32 -8z m708 12 c0 -13 -28 -25 -38 -16
-3 4 0 11 8 16 20 13 30 12 30 0z m-913 -32 c-3 -8 -6 -5 -6 6 -1 11 2 17 5
13 3 -3 4 -12 1 -19z m660 0 c-3 -8 -6 -5 -6 6 -1 11 2 17 5 13 3 -3 4 -12 1
-19z m203 12 c0 -5 -4 -10 -10 -10 -5 0 -10 5 -10 10 0 6 5 10 10 10 6 0 10
-4 10 -10z m300 -14 c0 -3 -4 -8 -10 -11 -5 -3 -10 -1 -10 4 0 6 5 11 10 11 6
0 10 -2 10 -4z m613 -5 c9 0 17 -7 17 -14 0 -8 -9 -13 -22 -11 -13 1 -23 3
-23 4 0 7 -63 6 -77 -2 -10 -5 -19 -4 -23 2 -3 5 -12 7 -20 3 -8 -3 -15 0 -15
5 0 18 41 21 163 13z m-1823 -38 c0 -7 -4 -13 -10 -13 -5 0 -10 12 -10 28 0
21 2 24 10 12 5 -8 10 -21 10 -27z m650 27 c-19 -13 -30 -13 -30 0 0 6 10 10
23 10 18 0 19 -2 7 -10z m995 -9 c-3 -6 -11 -11 -17 -11 -6 0 -6 6 2 15 14 17
26 13 15 -4z m239 4 c-25 -19 -34 -19 -34 0 0 10 10 15 27 15 26 0 26 -1 7
-15z m180 -34 c-6 -6 -104 -6 -104 0 0 7 26 17 70 28 17 5 27 2 31 -9 4 -8 5
-17 3 -19z m-1824 9 c0 -5 -4 -10 -9 -10 -6 0 -13 5 -16 10 -3 6 1 10 9 10 9
0 16 -4 16 -10z m2030 -7 c0 -15 1 -15 13 1 11 16 22 17 80 11 l68 -7 -3 -77
-3 -76 -30 0 c-29 0 -30 1 -33 56 l-3 56 -45 7 c-26 3 -50 3 -55 0 -5 -3 -9 6
-9 20 0 14 5 26 10 26 6 0 10 -8 10 -17z m296 -4 c64 1 74 -2 74 -17 0 -14 2
-15 10 -2 9 14 31 14 158 1 14 -1 16 -209 3 -276 -5 -22 -9 -32 -10 -22 0 9
-5 17 -11 17 -5 0 -10 -8 -10 -17 0 -16 -2 -16 -10 -3 -9 13 -12 13 -23 -2
-15 -18 -92 -20 -92 -3 0 6 -6 19 -12 30 -11 18 -12 16 -13 -17 0 -27 -4 -38
-15 -38 -8 0 -15 -7 -15 -16 0 -9 -6 -14 -12 -12 -8 3 -14 26 -16 56 -3 51 -3
51 -40 54 l-36 3 3 53 c1 32 -2 52 -8 52 -6 0 -11 -21 -11 -50 0 -28 -5 -50
-10 -50 -6 0 -11 22 -10 53 0 28 -1 86 -3 127 -2 70 6 96 26 83 4 -2 42 -5 83
-4z m-2356 -25 c0 -2 -12 -4 -26 -4 -14 0 -23 4 -20 9 6 8 46 4 46 -5z m1930
-5 c0 -6 7 -9 15 -5 9 3 15 0 15 -8 0 -20 -42 -28 -60 -11 -9 8 -22 15 -28 15
-6 0 -14 5 -17 10 -4 6 10 10 34 10 23 0 41 -5 41 -11z m-210 -13 c0 -8 -4
-18 -10 -21 -5 -3 -10 3 -10 14 0 12 5 21 10 21 6 0 10 -6 10 -14z m-200 -6
c21 14 42 12 37 -2 -2 -7 -12 -12 -21 -10 -10 2 -24 -5 -32 -15 -12 -17 -13
-16 -14 12 0 17 3 25 8 18 5 -8 13 -9 22 -3z m120 -10 c0 -13 -49 -18 -60 -5
-5 6 -8 14 -5 17 7 7 65 -3 65 -12z m50 5 c0 -8 -7 -15 -15 -15 -16 0 -20 12
-8 23 11 12 23 8 23 -8z m135 -4 c-3 -11 -1 -22 5 -26 17 -10 11 -22 -10 -20
-35 2 -42 19 -20 43 25 27 33 28 25 3z m-4348 -82 c0 -51 0 -51 -28 -45 -15 3
-29 2 -31 -3 -2 -4 -16 0 -31 9 l-28 17 48 36 c26 20 53 36 58 36 6 1 11 -21
12 -50z m337 -93 c17 -8 22 -15 14 -18 -7 -3 -21 4 -30 14 -21 22 -19 22 16 4z
m486 -16 c0 -5 -2 -10 -4 -10 -3 0 -8 5 -11 10 -3 6 -1 10 4 10 6 0 11 -4 11
-10z m-460 -30 c0 -5 -4 -10 -10 -10 -5 0 -10 5 -10 10 0 6 5 10 10 10 6 0 10
-4 10 -10z m4754 -442 c-3 -73 -7 -139 -10 -145 -2 -7 -17 -13 -33 -13 -34 0
-36 -6 -47 -132 l-6 -78 41 0 c41 0 41 0 41 -36 l0 -37 -117 6 c-65 4 -121 7
-126 7 -4 0 -4 12 -1 26 6 22 4 25 -12 20 -17 -5 -19 -1 -16 49 2 30 8 53 13
49 13 -8 11 3 -6 36 -9 17 -20 30 -25 30 -5 0 -7 18 -5 41 2 22 0 51 -4 62 -9
25 -3 50 10 41 17 -10 9 11 -10 28 -14 12 -19 30 -19 67 -1 66 -7 75 -39 54
-26 -17 -26 -17 -21 5 5 19 3 22 -13 17 -10 -4 -19 -2 -19 4 0 9 28 14 140 24
19 2 92 5 162 5 l127 2 -5 -132z m-434 3 c0 -5 -13 -19 -30 -31 -18 -13 -27
-26 -23 -35 3 -8 0 -15 -6 -15 -6 0 -11 -10 -11 -23 0 -16 9 -27 28 -35 24
-10 21 -11 -30 -8 -54 4 -56 4 -53 -20 1 -13 -2 -27 -6 -30 -5 -3 -9 -15 -9
-27 -1 -20 -2 -21 -14 -4 -7 9 -17 17 -23 17 -5 0 -7 15 -5 34 2 18 -1 43 -7
55 -10 17 -9 21 4 21 12 0 15 12 15 55 l0 55 85 0 c47 0 85 -4 85 -9z m30 -11
c0 -5 -4 -10 -10 -10 -5 0 -10 5 -10 10 0 6 5 10 10 10 6 0 10 -4 10 -10z
m-5143 -102 c-3 -8 -6 -5 -6 6 -1 11 2 17 5 13 3 -3 4 -12 1 -19z m10 -60 c-3
-8 -6 -5 -6 6 -1 11 2 17 5 13 3 -3 4 -12 1 -19z m-57 -138 c0 -5 -7 -10 -15
-10 -8 0 -15 5 -15 10 0 6 7 10 15 10 8 0 15 -4 15 -10z m713 -147 c-7 -2 -19
-2 -25 0 -7 3 -2 5 12 5 14 0 19 -2 13 -5z m-1119 -92 c3 -4 3 -11 0 -14 -8
-8 -34 3 -34 14 0 11 27 12 34 0z m1011 -61 c3 -5 2 -10 -4 -10 -5 0 -13 5
-16 10 -3 6 -2 10 4 10 5 0 13 -4 16 -10z m4959 -107 c-8 -34 -14 -42 -14 -20
0 10 -5 17 -11 17 -8 0 -8 5 1 15 20 24 31 18 24 -12z m-4417 11 c-3 -3 -12
-4 -19 -1 -8 3 -5 6 6 6 11 1 17 -2 13 -5z m-402 -42 c-8 -8 -25 10 -25 26 0
13 2 13 14 -4 8 -10 13 -21 11 -22z m110 -11 c3 -5 -8 -39 -25 -75 -29 -65
-30 -66 -69 -66 l-40 0 25 57 c40 90 42 93 74 93 16 0 31 -4 35 -9z m68 -83
c-8 -38 -18 -66 -23 -63 -4 2 -8 36 -9 76 -1 44 2 69 8 65 5 -4 13 -1 17 5 17
28 21 -21 7 -83z m71 6 c3 -31 4 -60 1 -65 -7 -10 -58 -13 -67 -4 -6 6 16 107
26 124 15 23 34 -3 40 -55z m187 10 c-1 -21 -10 -47 -18 -56 -19 -21 -53 -24
-53 -4 0 7 -3 34 -6 59 -6 42 -5 46 17 49 47 8 64 -6 60 -48z m47 25 c-18 -24
-24 -27 -26 -14 -6 26 6 45 28 45 20 0 20 0 -2 -31z m-204 -36 c4 -29 3 -53
-2 -53 -5 0 -10 26 -11 57 -3 70 4 67 13 -4z m29 37 c-3 -11 -7 -20 -9 -20 -2
0 -4 9 -4 20 0 11 4 20 9 20 5 0 7 -9 4 -20z m37 -35 c0 -48 -3 -55 -19 -55
-11 0 -22 4 -25 9 -8 12 24 101 35 101 5 0 9 -25 9 -55z m200 40 c0 -8 -9 -23
-20 -32 -11 -10 -20 -26 -20 -36 0 -9 -7 -20 -15 -24 -31 -11 -27 7 9 47 20
22 36 45 36 50 0 6 2 10 5 10 3 0 5 -7 5 -15z m1527 -12 c-3 -3 -11 -2 -17 2
-9 6 -9 10 1 16 14 8 27 -7 16 -18z m173 16 c0 -7 -9 -9 -24 -5 -18 4 -25 1
-29 -13 -4 -17 -10 -18 -43 -10 -22 4 -42 9 -46 9 -5 0 -8 4 -8 9 0 4 10 6 23
4 12 -2 33 0 47 6 34 13 80 13 80 0z m115 -12 c7 -6 1 -8 -17 -5 -15 3 -25 1
-22 -3 3 -5 12 -9 20 -9 8 0 14 -4 14 -9 0 -4 -11 -6 -25 -3 -14 2 -25 11 -25
19 0 7 -7 13 -16 11 -10 -2 -19 2 -21 9 -5 14 77 6 92 -10z m-2225 -45 c0 -57
0 -58 -30 -60 -16 -1 -30 1 -30 5 0 16 45 113 53 113 4 0 7 -26 7 -58z m-153
26 c-3 -8 -6 -5 -6 6 -1 11 2 17 5 13 3 -3 4 -12 1 -19z m2412 -5 c0 -5 -4
-17 -9 -28 -8 -18 -9 -17 -9 8 -1 15 4 27 9 27 6 0 10 -3 9 -7z m571 -3 c0 -5
-10 -10 -22 -10 -19 0 -20 2 -8 10 19 13 30 13 30 0z m57 4 c-3 -3 -12 -4 -19
-1 -8 3 -5 6 6 6 11 1 17 -2 13 -5z m96 -1 c-13 -2 -33 -2 -45 0 -13 2 -3 4
22 4 25 0 35 -2 23 -4z m-1043 -38 c0 -24 -5 -35 -15 -35 -10 0 -15 11 -15 35
0 24 5 35 15 35 10 0 15 -11 15 -35z m350 28 c0 -5 -5 -15 -10 -23 -8 -12 -10
-11 -10 8 0 12 5 22 10 22 6 0 10 -3 10 -7z m-280 -13 c0 -5 11 -10 25 -10 16
0 25 -6 25 -15 0 -11 -12 -15 -49 -15 -53 0 -70 12 -51 35 14 17 50 20 50 5z
m88 -29 c3 -8 -1 -12 -9 -9 -7 2 -15 10 -17 17 -3 8 1 12 9 9 7 -2 15 -10 17
-17z m127 8 c4 -5 -15 -9 -45 -9 -28 0 -49 4 -46 8 7 11 84 13 91 1z m2275
-19 c-36 -11 -52 -11 -45 0 3 6 21 10 38 9 31 -1 31 -1 7 -9z m-970 -10 c12
-8 12 -10 -5 -9 -11 0 -29 4 -40 9 -18 8 -18 9 5 9 14 0 32 -4 40 -9z m-3345
-10 c-3 -5 1 -10 9 -10 9 0 16 -4 16 -10 0 -5 -11 -10 -25 -10 -18 0 -25 5
-25 20 0 11 7 20 16 20 8 0 12 -4 9 -10z m-285 -12 c0 -4 -17 -8 -37 -8 -23 0
-33 4 -26 8 17 10 63 10 63 0z m247 -10 c-3 -8 -6 -5 -6 6 -1 11 2 17 5 13 3
-3 4 -12 1 -19z m-27 3 c0 -9 -69 -5 -79 4 -2 3 14 5 37 5 23 0 42 -4 42 -9z
m4559 -17 c11 -10 -11 -10 -94 2 l-90 13 90 -5 c50 -4 92 -8 94 -10z m-4709
-21 c0 -5 -15 -9 -33 -10 -26 -1 -28 0 -12 7 26 11 45 12 45 3z m303 -50 c28
-7 10 -22 -26 -21 -83 1 -149 11 -136 19 14 9 130 10 162 2z m117 -3 c-8 -5
-22 -10 -30 -10 -13 0 -13 1 0 10 8 5 22 10 30 10 13 0 13 -1 0 -10z m1575
-10 c3 -5 1 -10 -4 -10 -6 0 -11 5 -11 10 0 6 2 10 4 10 3 0 8 -4 11 -10z
m-2938 -92 c-3 -8 -6 -5 -6 6 -1 11 2 17 5 13 3 -3 4 -12 1 -19z m3548 -18 c3
-5 1 -10 -4 -10 -6 0 -11 5 -11 10 0 6 2 10 4 10 3 0 8 -4 11 -10z m1052 -5
c-4 9 -3 14 3 10 6 -3 10 -13 10 -22 0 -12 -7 -14 -31 -9 -17 3 -38 6 -46 6
-11 0 -11 3 -1 14 11 12 17 12 42 -1 26 -14 28 -14 23 2z m-4610 -27 c-3 -8
-6 -5 -6 6 -1 11 2 17 5 13 3 -3 4 -12 1 -19z m3383 2 c0 -5 -4 -10 -10 -10
-5 0 -10 5 -10 10 0 6 5 10 10 10 6 0 10 -4 10 -10z m2150 -29 c0 -12 -29 -23
-41 -15 -18 10 -9 24 16 24 14 0 25 -4 25 -9z m-947 -22 c4 -14 11 -20 20 -16
8 3 20 0 26 -6 8 -8 11 -8 11 0 0 6 11 13 25 15 30 6 35 -18 5 -27 -11 -3 -20
-11 -20 -16 0 -6 -10 -3 -22 5 -12 9 -29 16 -36 16 -22 0 -65 37 -50 43 25 10
36 7 41 -14z m-70 -83 c16 -13 15 -14 -10 -19 -32 -6 -43 -1 -43 19 0 18 29
18 53 0z m-47 -39 c15 -9 20 -47 6 -47 -21 0 -40 36 -34 65 5 24 7 26 10 10 2
-11 10 -24 18 -28z m94 -4 c0 -28 -3 -34 -10 -23 -13 20 -13 60 0 60 6 0 10
-17 10 -37z m27 -20 c-4 -17 -4 -17 -12 0 -4 9 -4 25 0 35 8 16 8 16 12 0 3
-10 3 -26 0 -35z m33 1 c0 -14 -4 -22 -10 -19 -5 3 -10 17 -10 31 0 14 4 22
10 19 6 -3 10 -17 10 -31z m-210 -53 c0 -37 -19 -50 -37 -25 -9 12 -10 20 -3
22 5 2 10 10 10 18 0 8 7 14 15 14 10 0 15 -10 15 -29z"/>
<path d="M6605 8890 c-3 -5 -1 -10 4 -10 6 0 11 5 11 10 0 6 -2 10 -4 10 -3 0
-8 -4 -11 -10z"/>
<path d="M6555 8871 c-3 -5 -2 -12 3 -15 5 -3 9 1 9 9 0 17 -3 19 -12 6z"/>
<path d="M5410 8400 c-9 -6 -10 -10 -3 -10 6 0 15 5 18 10 8 12 4 12 -15 0z"/>
<path d="M4895 8180 c-16 -7 -17 -9 -3 -9 9 -1 20 4 23 9 7 11 7 11 -20 0z"/>
<path d="M4830 8150 c8 -5 20 -10 25 -10 6 0 3 5 -5 10 -8 5 -19 10 -25 10 -5
0 -3 -5 5 -10z"/>
<path d="M4755 8130 c-4 -6 5 -10 20 -10 15 0 24 4 20 10 -3 6 -12 10 -20 10
-8 0 -17 -4 -20 -10z"/>
<path d="M4134 7783 c-4 -10 -6 -24 -5 -30 1 -8 -9 -13 -23 -13 -14 0 -28 -5
-32 -12 -4 -7 -3 -8 4 -4 8 5 12 -1 12 -16 l1 -23 14 25 c14 25 14 25 15 3 0
-13 5 -23 10 -23 6 0 10 11 10 25 0 14 4 25 9 25 5 0 12 7 15 16 4 9 2 13 -5
8 -8 -4 -9 1 -4 15 8 25 -10 28 -21 4z"/>
<path d="M4025 7750 c3 -5 13 -10 21 -10 8 0 12 5 9 10 -3 6 -13 10 -21 10 -8
0 -12 -4 -9 -10z"/>
<path d="M4202 7705 c0 -16 2 -22 5 -12 2 9 2 23 0 30 -3 6 -5 -1 -5 -18z"/>
<path d="M3910 7698 c1 -19 36 -58 52 -58 7 0 24 7 36 16 21 15 25 14 57 -11
22 -16 32 -20 29 -10 -3 8 -1 15 4 15 6 0 13 -10 15 -22 4 -23 4 -23 6 -1 1
29 -60 68 -91 57 -29 -10 -57 -6 -85 12 -18 11 -23 12 -23 2z"/>
<path d="M4152 7670 c0 -19 2 -27 5 -17 2 9 2 25 0 35 -3 9 -5 1 -5 -18z"/>
<path d="M4172 7675 c0 -16 2 -22 5 -12 2 9 2 23 0 30 -3 6 -5 -1 -5 -18z"/>
<path d="M3800 7656 c0 -8 5 -16 11 -18 13 -4 39 -73 39 -102 0 -29 17 -7 22
29 3 17 3 24 1 18 -8 -24 -20 -13 -15 13 3 16 1 24 -4 21 -6 -3 -16 8 -23 24
-13 30 -31 39 -31 15z"/>
<path d="M3871 7651 c-11 -7 -9 -14 13 -37 14 -16 29 -38 32 -49 3 -11 10 -30
17 -43 9 -19 8 -25 -3 -33 -13 -9 -13 -10 0 -6 21 5 24 86 4 94 -9 3 -12 13
-9 24 4 11 2 19 -3 19 -5 0 -12 9 -15 20 -6 22 -14 24 -36 11z"/>
<path d="M4130 7612 l5 -47 3 39 c2 21 0 42 -5 47 -4 4 -6 -13 -3 -39z"/>
<path d="M3750 7645 c0 -18 19 -40 26 -32 4 4 0 15 -9 24 -9 10 -17 13 -17 8z"/>
<path d="M4010 7640 c0 -5 5 -10 10 -10 6 0 10 5 10 10 0 6 -4 10 -10 10 -5 0
-10 -4 -10 -10z"/>
<path d="M4850 7640 c0 -5 7 -7 15 -4 8 4 15 8 15 10 0 2 -7 4 -15 4 -8 0 -15
-4 -15 -10z"/>
<path d="M4181 7604 c0 -11 3 -14 6 -6 3 7 2 16 -1 19 -3 4 -6 -2 -5 -13z"/>
<path d="M4050 7600 c0 -14 31 -41 43 -37 6 2 12 10 15 18 3 12 2 12 -7 -1 -9
-12 -11 -12 -16 2 -7 18 -35 33 -35 18z"/>
<path d="M4162 7585 c0 -16 2 -22 5 -12 2 9 2 23 0 30 -3 6 -5 -1 -5 -18z"/>
<path d="M3800 7580 c0 -19 3 -21 12 -12 9 9 9 15 0 24 -9 9 -12 7 -12 -12z"/>
<path d="M3740 7569 c0 -5 7 -20 15 -33 9 -13 14 -29 13 -36 -2 -7 3 -15 10
-17 7 -3 12 4 12 16 0 12 -4 21 -10 21 -5 0 -10 11 -10 24 0 13 -7 26 -15 30
-8 3 -15 1 -15 -5z"/>
<path d="M3823 7543 c-3 -10 -8 -21 -10 -25 -2 -4 3 -5 11 -2 9 3 16 15 16 25
0 24 -9 25 -17 2z"/>
<path d="M3622 7515 c0 -16 2 -22 5 -12 2 9 2 23 0 30 -3 6 -5 -1 -5 -18z"/>
<path d="M3707 7482 c-3 -20 -2 -59 3 -87 9 -58 10 -54 16 42 5 75 -10 110
-19 45z"/>
<path d="M3619 7433 c-5 -36 -2 -103 4 -103 4 0 7 25 7 55 0 30 -2 55 -5 55
-3 0 -5 -3 -6 -7z"/>
<path d="M6653 7380 c0 -25 2 -35 4 -22 2 12 2 32 0 45 -2 12 -4 2 -4 -23z"/>
<path d="M6578 7273 c7 -3 16 -2 19 1 4 3 -2 6 -13 5 -11 0 -14 -3 -6 -6z"/>
<path d="M6632 7237 c-7 -8 -6 -18 4 -31 13 -19 14 -18 14 12 0 35 -3 38 -18
19z"/>
<path d="M6576 7231 c-4 -5 -2 -12 3 -15 5 -4 12 -2 15 3 4 5 2 12 -3 15 -5 4
-12 2 -15 -3z"/>
<path d="M6430 7125 c0 -7 -8 -19 -17 -24 -16 -9 -16 -10 3 -11 15 0 23 8 26
25 3 14 1 25 -3 25 -5 0 -9 -7 -9 -15z"/>
<path d="M6195 7061 c-3 -5 -1 -12 5 -16 5 -3 10 1 10 9 0 18 -6 21 -15 7z"/>
<path d="M6415 7060 c-3 -5 -2 -10 4 -10 5 0 13 5 16 10 3 6 2 10 -4 10 -5 0
-13 -4 -16 -10z"/>
<path d="M6490 7061 c8 -5 11 -13 7 -17 -8 -8 11 -34 25 -34 5 0 8 12 6 28 -2
20 -9 28 -28 30 -19 2 -22 1 -10 -7z"/>
<path d="M6410 7020 c0 -5 5 -10 10 -10 6 0 10 5 10 10 0 6 -4 10 -10 10 -5 0
-10 -4 -10 -10z"/>
<path d="M6391 6994 c0 -11 3 -14 6 -6 3 7 2 16 -1 19 -3 4 -6 -2 -5 -13z"/>
<path d="M5576 6908 c-3 -13 -1 -27 4 -32 7 -7 10 1 10 22 0 37 -5 41 -14 10z"/>
<path d="M5498 6875 c-2 -19 -1 -35 3 -35 9 0 17 60 8 65 -4 3 -9 -11 -11 -30z"/>
<path d="M5540 6890 c0 -11 5 -20 10 -20 6 0 10 9 10 20 0 11 -4 20 -10 20 -5
0 -10 -9 -10 -20z"/>
<path d="M6460 6900 c0 -5 5 -10 11 -10 5 0 7 5 4 10 -3 6 -8 10 -11 10 -2 0
-4 -4 -4 -10z"/>
<path d="M6627 6895 c-4 -8 -2 -17 3 -20 6 -4 10 3 10 14 0 25 -6 27 -13 6z"/>
<path d="M6585 6890 c-8 -13 4 -32 16 -25 12 8 12 35 0 35 -6 0 -13 -4 -16
-10z"/>
<path d="M6486 6881 c-4 -7 -5 -15 -2 -18 9 -9 19 4 14 18 -4 11 -6 11 -12 0z"/>
<path d="M5430 6869 c0 -5 5 -7 10 -4 6 3 10 8 10 11 0 2 -4 4 -10 4 -5 0 -10
-5 -10 -11z"/>
<path d="M5990 6833 c0 -10 5 -25 10 -33 8 -12 10 -9 10 12 0 15 -4 30 -10 33
-5 3 -10 -2 -10 -12z"/>
<path d="M6170 6826 c0 -22 3 -27 11 -19 8 8 8 16 0 30 -9 16 -10 14 -11 -11z"/>
<path d="M6482 6825 c0 -16 2 -22 5 -12 2 9 2 23 0 30 -3 6 -5 -1 -5 -18z"/>
<path d="M6576 6835 c4 -8 8 -15 10 -15 2 0 4 7 4 15 0 8 -4 15 -10 15 -5 0
-7 -7 -4 -15z"/>
<path d="M5910 6831 c0 -5 5 -13 10 -16 6 -3 10 -2 10 4 0 5 -4 13 -10 16 -5
3 -10 2 -10 -4z"/>
<path d="M5946 6831 c-3 -5 1 -22 9 -37 l15 -29 0 32 c0 32 -14 51 -24 34z"/>
<path d="M6222 6815 c0 -16 2 -22 5 -12 2 9 2 23 0 30 -3 6 -5 -1 -5 -18z"/>
<path d="M5488 6803 c-2 -12 -13 -18 -33 -19 -61 -2 -62 -3 -57 -29 4 -25 5
-25 24 -8 15 13 21 14 27 4 6 -10 10 -8 15 5 6 16 8 16 17 4 8 -13 10 -13 19
0 12 19 13 60 1 60 -5 0 -11 -8 -13 -17z"/>
<path d="M5090 6770 c0 -11 7 -20 15 -20 13 0 14 4 5 20 -6 11 -13 20 -15 20
-3 0 -5 -9 -5 -20z"/>
<path d="M6267 6783 c-7 -11 10 -40 18 -31 4 4 3 14 -3 24 -5 9 -12 12 -15 7z"/>
<path d="M4997 6773 c-4 -3 -7 -16 -6 -27 0 -19 1 -19 10 3 10 24 8 36 -4 24z"/>
<path d="M5147 6761 c-16 -6 -16 -7 2 -23 18 -15 19 -15 24 3 6 23 -2 29 -26
20z"/>
<path d="M4920 6735 c1 -26 2 -28 11 -12 8 14 8 22 0 30 -8 8 -11 3 -11 -18z"/>
<path d="M4957 6754 c-4 -4 -7 -14 -7 -23 0 -11 3 -12 11 -4 6 6 10 16 7 23
-2 6 -7 8 -11 4z"/>
<path d="M4644 6707 c-7 -20 2 -37 21 -37 7 0 15 -5 17 -12 2 -6 11 -9 20 -5
21 8 12 47 -11 47 -9 0 -22 5 -29 12 -9 9 -13 7 -18 -5z"/>
<path d="M4729 6699 c-7 -14 -8 -24 -1 -31 15 -15 32 0 32 28 0 30 -15 31 -31
3z"/>
<path d="M4520 6676 c0 -22 3 -27 11 -19 8 8 8 16 0 30 -9 16 -10 14 -11 -11z"/>
<path d="M4550 6670 c0 -11 2 -20 4 -20 2 0 6 9 9 20 3 11 1 20 -4 20 -5 0 -9
-9 -9 -20z"/>
<path d="M4030 6668 c0 -18 18 -34 28 -24 3 4 -2 14 -11 23 -16 16 -17 16 -17
1z"/>
<path d="M4491 6650 c0 -33 1 -34 11 -12 8 17 8 26 0 34 -9 9 -12 4 -11 -22z"/>
<path d="M4330 6625 c-7 -14 -20 -25 -28 -25 -23 0 -11 -6 27 -14 28 -5 32 -4
21 9 -6 8 -9 23 -5 35 9 28 1 25 -15 -5z"/>
<path d="M4414 6630 c0 -23 6 -24 41 -8 35 16 31 28 -8 28 -26 0 -33 -4 -33
-20z"/>
<path d="M3805 6617 c-4 -10 -5 -21 -1 -24 10 -10 18 4 13 24 -4 17 -4 17 -12
0z"/>
<path d="M4376 6614 c-4 -9 -4 -19 -1 -22 2 -3 7 3 11 12 4 9 4 19 1 22 -2 3
-7 -3 -11 -12z"/>
<path d="M3626 6189 c-2 -8 -7 -32 -10 -54 -4 -28 -3 -34 4 -20 5 13 9 -42 9
-156 1 -286 13 -569 24 -569 6 0 7 18 4 44 -4 25 -9 206 -13 403 -4 197 -8
360 -10 362 -2 2 -6 -2 -8 -10z"/>
<path d="M3653 5170 c0 -30 2 -43 4 -27 2 15 2 39 0 55 -2 15 -4 2 -4 -28z"/>
<path d="M3651 5094 c0 -11 3 -14 6 -6 3 7 2 16 -1 19 -3 4 -6 -2 -5 -13z"/>
<path d="M5820 4779 c0 -5 5 -7 10 -4 6 3 10 8 10 11 0 2 -4 4 -10 4 -5 0 -10
-5 -10 -11z"/>
<path d="M3647 4748 c4 -7 6 -21 5 -30 -2 -11 3 -18 12 -18 11 0 16 9 16 30 0
24 -4 30 -21 30 -14 0 -18 -4 -12 -12z"/>
<path d="M5950 4750 c0 -5 3 -10 8 -11 4 0 17 -2 29 -3 18 -2 20 0 12 11 -13
15 -49 18 -49 3z"/>
<path d="M6180 4740 c0 -5 7 -10 15 -10 8 0 15 5 15 10 0 6 -7 10 -15 10 -8 0
-15 -4 -15 -10z"/>
<path d="M6225 4710 c3 -5 8 -10 11 -10 2 0 4 5 4 10 0 6 -5 10 -11 10 -5 0
-7 -4 -4 -10z"/>
<path d="M3791 4634 c0 -11 3 -14 6 -6 3 7 2 16 -1 19 -3 4 -6 -2 -5 -13z"/>
<path d="M3990 4608 c0 -7 4 -30 9 -50 6 -26 6 -36 -2 -31 -7 4 -8 -6 -4 -30
4 -23 2 -37 -5 -37 -6 0 -8 -12 -4 -30 3 -17 1 -41 -6 -54 -16 -36 -4 -60 23
-46 11 7 23 10 25 7 4 -4 7 -35 13 -131 0 -11 4 -16 8 -13 10 11 4 118 -8 150
-9 20 -8 31 0 41 9 10 9 20 3 33 -6 10 -11 34 -11 53 -4 109 -7 136 -16 142
-15 11 -25 9 -25 -4z"/>
<path d="M3877 4589 c-11 -9 -17 -24 -15 -33 5 -23 40 7 36 32 -3 18 -4 18
-21 1z"/>
<path d="M3922 4570 c0 -14 2 -19 5 -12 2 6 2 18 0 25 -3 6 -5 1 -5 -13z"/>
<path d="M3946 4573 c-3 -3 -6 -15 -6 -25 0 -15 -5 -18 -19 -13 -12 3 -28 -1
-40 -12 -25 -21 -29 -58 -5 -49 9 3 18 6 20 6 2 0 4 9 4 19 0 11 5 23 12 27 8
5 9 -5 5 -34 -3 -23 -1 -42 4 -42 5 0 9 14 9 30 0 17 4 30 8 30 11 0 32 59 23
65 -5 2 -11 2 -15 -2z"/>
<path d="M4115 4498 c4 -90 4 -88 22 -81 15 6 16 -3 10 -85 -3 -50 -2 -94 3
-97 4 -3 9 45 9 105 1 85 -1 110 -11 108 -9 -2 -14 12 -16 42 -5 64 -19 71
-17 8z"/>
<path d="M4145 4521 c-3 -5 -1 -12 5 -16 5 -3 10 1 10 9 0 18 -6 21 -15 7z"/>
<path d="M4170 4505 c0 -14 2 -25 5 -25 13 0 55 24 55 32 0 5 -4 6 -10 3 -5
-3 -10 -1 -10 4 0 6 -9 11 -20 11 -15 0 -20 -7 -20 -25z"/>
<path d="M3828 4505 c-8 -8 2 -45 13 -45 10 0 10 8 0 33 -3 10 -9 15 -13 12z"/>
<path d="M4354 4477 c-23 -26 -37 -57 -26 -57 14 0 72 62 66 71 -8 14 -19 11
-40 -14z"/>
<path d="M4671 4493 c0 -4 4 -17 9 -28 8 -19 9 -19 9 2 1 12 -3 25 -9 28 -5 3
-10 3 -9 -2z"/>
<path d="M3940 4388 c0 -56 3 -99 6 -95 10 9 13 197 3 197 -5 0 -9 -46 -9
-102z"/>
<path d="M4429 4466 c-14 -29 -5 -46 13 -28 19 19 68 15 68 -5 1 -17 1 -17 11
0 16 27 5 43 -27 41 -16 -1 -35 3 -41 8 -9 7 -16 3 -24 -16z"/>
<path d="M6227 4484 c-4 -4 -4 -10 -1 -15 6 -10 34 0 34 12 0 10 -24 12 -33 3z"/>
<path d="M4540 4455 c0 -19 5 -23 25 -20 14 1 25 -2 25 -7 0 -5 6 -8 13 -6 25
5 69 -13 64 -26 -6 -16 11 -36 32 -36 12 0 12 3 3 12 -7 7 -12 22 -12 35 0 13
-6 23 -14 23 -7 0 -20 10 -29 23 -18 27 -57 33 -58 9 0 -14 -2 -15 -7 -2 -11
25 -42 21 -42 -5z"/>
<path d="M4761 4463 c-8 -15 -13 -16 -30 -6 -11 7 -23 9 -26 4 -3 -5 8 -14 25
-19 20 -7 28 -16 24 -25 -6 -17 11 -31 26 -22 8 5 7 11 -1 21 -9 11 -8 14 5
14 20 0 21 23 2 39 -11 10 -17 8 -25 -6z"/>
<path d="M4238 4460 c12 -5 22 -15 22 -23 0 -7 9 -13 20 -14 11 -1 20 2 20 8
0 5 -7 9 -15 9 -8 0 -15 7 -15 15 0 10 -9 15 -27 14 -27 0 -27 -1 -5 -9z"/>
<path d="M4183 4453 c-7 -2 -13 -14 -13 -25 0 -28 34 -19 38 10 3 22 -2 25
-25 15z"/>
<path d="M6488 4453 c7 -3 16 -2 19 1 4 3 -2 6 -13 5 -11 0 -14 -3 -6 -6z"/>
<path d="M3878 4436 c-19 -14 -24 -36 -9 -36 12 0 33 28 29 39 -2 6 -10 4 -20
-3z"/>
<path d="M4221 4434 c0 -11 3 -14 6 -6 3 7 2 16 -1 19 -3 4 -6 -2 -5 -13z"/>
<path d="M4241 4434 c0 -11 3 -14 6 -6 3 7 2 16 -1 19 -3 4 -6 -2 -5 -13z"/>
<path d="M3921 4414 c0 -11 3 -14 6 -6 3 7 2 16 -1 19 -3 4 -6 -2 -5 -13z"/>
<path d="M4371 4412 c-14 -25 -14 -42 -1 -42 15 0 29 35 20 49 -6 11 -10 9
-19 -7z"/>
<path d="M6230 4420 c0 -8 8 -24 16 -35 16 -19 16 -19 9 5 -9 31 -25 50 -25
30z"/>
<path d="M3820 4410 c0 -5 4 -10 9 -10 6 0 13 5 16 10 3 6 -1 10 -9 10 -9 0
-16 -4 -16 -10z"/>
<path d="M4715 4410 c3 -5 11 -10 16 -10 6 0 7 5 4 10 -3 6 -11 10 -16 10 -6
0 -7 -4 -4 -10z"/>
<path d="M4432 4387 c-16 -18 0 -37 26 -31 18 5 20 10 11 25 -11 22 -22 24
-37 6z"/>
<path d="M4560 4390 c0 -6 -4 -8 -10 -5 -5 3 -10 -1 -10 -9 0 -9 5 -16 10 -16
6 0 10 -7 8 -16 -2 -10 3 -19 10 -21 15 -6 17 63 2 72 -5 3 -10 1 -10 -5z"/>
<path d="M4960 4365 c0 -23 3 -27 10 -15 5 8 10 12 10 7 0 -9 50 22 50 32 0 3
-16 6 -35 6 -32 0 -35 -2 -35 -30z"/>
<path d="M5048 4393 c6 -2 18 -2 25 0 6 3 1 5 -13 5 -14 0 -19 -2 -12 -5z"/>
<path d="M6421 4384 c0 -11 3 -14 6 -6 3 7 2 16 -1 19 -3 4 -6 -2 -5 -13z"/>
<path d="M4110 4371 c0 -11 5 -23 10 -26 6 -4 10 5 10 19 0 14 -4 26 -10 26
-5 0 -10 -9 -10 -19z"/>
<path d="M4198 4382 c-25 -3 -28 -8 -28 -38 0 -33 0 -34 19 -15 10 10 24 20
31 23 24 8 6 33 -22 30z"/>
<path d="M4240 4368 c0 -11 4 -17 9 -14 5 4 12 0 14 -6 3 -7 6 -1 6 13 1 16
-4 26 -14 26 -8 0 -15 -9 -15 -19z"/>
<path d="M4510 4375 c0 -8 4 -15 10 -15 5 0 7 7 4 15 -4 8 -8 15 -10 15 -2 0
-4 -7 -4 -15z"/>
<path d="M4590 4358 c0 -25 3 -29 10 -18 13 20 13 50 0 50 -5 0 -10 -15 -10
-32z"/>
<path d="M3886 4358 c-7 -22 -7 -22 -16 -3 -8 18 -9 17 -9 -8 -1 -25 1 -27 19
-17 11 6 20 20 20 30 0 26 -6 25 -14 -2z"/>
<path d="M4719 4362 c-1 -12 -2 -27 -3 -34 -1 -6 6 -13 14 -16 12 -4 13 -2 3
9 -9 9 -10 16 -1 26 8 10 8 17 0 25 -9 9 -12 7 -13 -10z"/>
<path d="M4757 4361 c-2 -10 0 -26 6 -37 10 -17 11 -17 18 1 12 30 10 42 -5
48 -8 3 -16 -2 -19 -12z"/>
<path d="M4323 4355 c-6 -6 -7 -18 -3 -25 6 -9 10 -7 15 9 8 27 4 33 -12 16z"/>
<path d="M4386 4339 c-20 -34 -12 -55 10 -25 12 17 20 56 11 56 -1 0 -11 -14
-21 -31z"/>
<path d="M4620 4345 c0 -26 14 -34 24 -12 3 6 3 2 0 -10 -3 -15 1 -23 15 -28
11 -3 22 -14 24 -23 3 -15 5 -15 12 2 6 13 4 21 -3 24 -7 2 -12 9 -12 15 -1
16 -36 57 -49 57 -6 0 -11 -11 -11 -25z"/>
<path d="M6227 4356 c-14 -35 0 -113 17 -96 9 10 9 66 -1 89 -8 21 -11 22 -16
7z"/>
<path d="M3921 4344 c0 -11 3 -14 6 -6 3 7 2 16 -1 19 -3 4 -6 -2 -5 -13z"/>
<path d="M4291 4344 c0 -11 3 -14 6 -6 3 7 2 16 -1 19 -3 4 -6 -2 -5 -13z"/>
<path d="M4110 4241 c0 -80 -2 -92 -14 -81 -8 6 -17 24 -19 38 -3 18 -5 15 -4
-10 1 -20 -2 -40 -6 -44 -4 -4 -7 0 -7 9 0 9 -5 19 -11 23 -9 5 -10 -1 -5 -22
4 -16 12 -30 17 -32 5 -2 9 -10 9 -18 0 -8 5 -14 10 -14 6 0 8 11 4 25 -5 20
-3 24 9 19 9 -3 18 -13 20 -22 3 -10 6 17 7 58 2 41 4 89 5 105 2 17 -1 37 -6
45 -5 9 -9 -22 -9 -79z"/>
<path d="M3983 4308 c-16 -20 -26 -58 -15 -58 6 0 13 6 15 13 4 8 6 7 6 -3 1
-9 -3 -20 -8 -25 -5 -6 -12 -28 -16 -50 l-6 -40 17 30 c9 17 20 32 23 35 8 7
8 96 0 104 -3 4 -11 1 -16 -6z"/>
<path d="M4216 4299 c-16 -5 -33 -6 -38 -3 -4 3 -7 -32 -7 -78 1 -46 4 -70 6
-55 4 23 7 26 19 16 11 -9 14 -8 14 5 0 9 5 16 10 16 6 0 10 8 9 18 0 10 -3
12 -6 5 -2 -7 -13 -13 -24 -13 -31 0 -23 37 11 55 19 10 30 11 30 5 0 -6 4 -9
9 -6 5 4 12 0 14 -6 3 -7 6 -1 6 13 1 32 -13 39 -53 28z"/>
<path d="M4436 4294 c-9 -25 4 -37 19 -17 13 18 11 33 -5 33 -4 0 -11 -7 -14
-16z"/>
<path d="M6456 4295 c4 -8 8 -15 10 -15 2 0 4 7 4 15 0 8 -4 15 -10 15 -5 0
-7 -7 -4 -15z"/>
<path d="M3887 4293 c-4 -3 -7 -13 -7 -22 1 -13 3 -13 11 2 11 19 8 33 -4 20z"/>
<path d="M4510 4270 c0 -16 2 -30 4 -30 2 0 6 14 8 30 3 17 1 30 -4 30 -4 0
-8 -13 -8 -30z"/>
<path d="M4560 4290 c0 -5 5 -10 10 -10 6 0 10 5 10 10 0 6 -4 10 -10 10 -5 0
-10 -4 -10 -10z"/>
<path d="M4595 4290 c-3 -5 -3 -15 1 -21 4 -8 9 -7 15 2 7 11 9 11 9 1 0 -7 4
-11 9 -7 5 3 12 -3 14 -12 3 -12 5 -9 6 8 1 33 -39 54 -54 29z"/>
<path d="M4280 4270 c0 -19 3 -21 12 -12 9 9 9 15 0 24 -9 9 -12 7 -12 -12z"/>
<path d="M4965 4280 c-3 -5 -1 -10 4 -10 6 0 11 5 11 10 0 6 -2 10 -4 10 -3 0
-8 -4 -11 -10z"/>
<path d="M4320 4270 c0 -5 4 -10 9 -10 6 0 13 5 16 10 3 6 -1 10 -9 10 -9 0
-16 -4 -16 -10z"/>
<path d="M4755 4270 c-3 -5 1 -10 9 -10 9 0 16 5 16 10 0 6 -4 10 -9 10 -6 0
-13 -4 -16 -10z"/>
<path d="M4390 4255 c-10 -12 -10 -15 4 -15 9 0 16 7 16 15 0 8 -2 15 -4 15
-2 0 -9 -7 -16 -15z"/>
<path d="M6422 4244 c2 -25 8 -29 36 -32 34 -3 36 0 22 33 -8 18 -9 18 -9 -4
-1 -20 -3 -22 -13 -12 -7 6 -13 17 -13 23 0 6 -6 13 -13 16 -10 3 -13 -4 -10
-24z"/>
<path d="M4560 4250 c0 -5 5 -10 10 -10 6 0 10 5 10 10 0 6 -4 10 -10 10 -5 0
-10 -4 -10 -10z"/>
<path d="M4880 4250 c0 -5 -10 -10 -22 -10 l-21 0 23 -20 c13 -11 30 -20 38
-20 12 0 12 3 -4 14 -10 8 -16 18 -11 22 4 4 13 2 19 -4 7 -7 16 -12 22 -12 5
0 0 9 -12 20 -24 22 -32 25 -32 10z"/>
<path d="M3941 4234 c0 -11 3 -14 6 -6 3 7 2 16 -1 19 -3 4 -6 -2 -5 -13z"/>
<path d="M4721 4224 c0 -11 3 -14 6 -6 3 7 2 16 -1 19 -3 4 -6 -2 -5 -13z"/>
<path d="M4241 4196 c2 -26 2 -27 6 -7 4 19 7 21 14 10 7 -11 9 -9 9 7 0 12
-6 21 -15 21 -10 0 -15 -10 -14 -31z"/>
<path d="M4440 4215 c0 -8 5 -15 10 -15 6 0 10 7 10 15 0 8 -4 15 -10 15 -5 0
-10 -7 -10 -15z"/>
<path d="M4760 4220 c0 -5 5 -10 11 -10 5 0 7 5 4 10 -3 6 -8 10 -11 10 -2 0
-4 -4 -4 -10z"/>
<path d="M3820 4186 c0 -31 6 -34 13 -6 3 11 1 23 -4 26 -5 3 -9 -6 -9 -20z"/>
<path d="M4141 4193 c0 -10 4 -27 9 -38 7 -16 9 -13 9 18 1 20 -3 37 -9 37 -5
0 -10 -8 -9 -17z"/>
<path d="M4281 4194 c0 -11 3 -14 6 -6 3 7 2 16 -1 19 -3 4 -6 -2 -5 -13z"/>
<path d="M4542 4185 c0 -16 2 -22 5 -12 2 9 2 23 0 30 -3 6 -5 -1 -5 -18z"/>
<path d="M4565 4200 c3 -5 8 -10 11 -10 2 0 4 5 4 10 0 6 -5 10 -11 10 -5 0
-7 -4 -4 -10z"/>
<path d="M4590 4200 c0 -5 5 -10 10 -10 6 0 10 5 10 10 0 6 -4 10 -10 10 -5 0
-10 -4 -10 -10z"/>
<path d="M4310 4190 c0 -5 5 -10 11 -10 5 0 7 5 4 10 -3 6 -8 10 -11 10 -2 0
-4 -4 -4 -10z"/>
<path d="M4820 4186 c0 -2 13 -6 29 -8 17 -2 28 -1 25 4 -5 8 -54 12 -54 4z"/>
<path d="M4912 4179 c2 -7 10 -15 17 -17 8 -3 12 1 9 9 -2 7 -10 15 -17 17 -8
3 -12 -1 -9 -9z"/>
<path d="M3912 4160 c0 -14 2 -19 5 -12 2 6 2 18 0 25 -3 6 -5 1 -5 -13z"/>
<path d="M4565 4170 c-3 -5 -1 -10 4 -10 6 0 11 5 11 10 0 6 -2 10 -4 10 -3 0
-8 -4 -11 -10z"/>
<path d="M6292 4144 c-14 -27 7 -50 35 -39 16 6 16 8 2 18 -9 7 -18 19 -21 27
-4 12 -7 10 -16 -6z"/>
<path d="M3820 4115 c0 -15 4 -24 10 -20 6 3 10 12 10 20 0 8 -4 17 -10 20 -6
4 -10 -5 -10 -20z"/>
<path d="M3912 4100 c0 -19 2 -27 5 -17 2 9 2 25 0 35 -3 9 -5 1 -5 -18z"/>
<path d="M3960 4100 c0 -16 2 -30 4 -30 2 0 6 14 8 30 3 17 1 30 -4 30 -4 0
-8 -13 -8 -30z"/>
<path d="M4195 4120 c3 -5 8 -10 11 -10 2 0 4 5 4 10 0 6 -5 10 -11 10 -5 0
-7 -4 -4 -10z"/>
<path d="M3715 3850 c3 -5 8 -10 11 -10 2 0 4 5 4 10 0 6 -5 10 -11 10 -5 0
-7 -4 -4 -10z"/>
<path d="M3723 3755 c0 -38 2 -53 4 -32 2 20 2 52 0 70 -2 17 -4 1 -4 -38z"/>
<path d="M3711 3663 c-16 -17 -2 -36 18 -24 9 6 10 14 5 24 -8 13 -11 13 -23
0z"/>
<path d="M4805 3590 c3 -5 8 -10 11 -10 2 0 4 5 4 10 0 6 -5 10 -11 10 -5 0
-7 -4 -4 -10z"/>
<path d="M4845 3590 c3 -5 8 -10 11 -10 2 0 4 5 4 10 0 6 -5 10 -11 10 -5 0
-7 -4 -4 -10z"/>
<path d="M4870 3595 c0 -14 31 -65 40 -65 6 0 10 -7 10 -15 0 -8 7 -15 15 -15
21 0 19 43 -2 62 -23 19 -63 41 -63 33z"/>
<path d="M3220 3564 c0 -8 5 -12 10 -9 6 4 8 11 5 16 -9 14 -15 11 -15 -7z"/>
<path d="M4969 3542 c-10 -55 -8 -58 37 -68 30 -7 45 -7 48 0 3 7 5 6 5 -1 1
-7 10 -13 21 -13 11 0 20 -6 21 -12 0 -7 5 -2 10 12 9 21 7 27 -12 40 -25 16
-44 22 -76 22 -13 0 -21 4 -18 8 3 4 -4 10 -15 13 -11 3 -21 2 -21 -1z"/>
<path d="M3441 3264 c0 -11 3 -14 6 -6 3 7 2 16 -1 19 -3 4 -6 -2 -5 -13z"/>
<path d="M1667 5123 c-15 -24 -26 -131 -17 -158 l10 -30 -4 30 c-5 34 12 124
26 142 5 7 5 14 -1 17 -5 4 -12 3 -14 -1z"/>
<path d="M1642 4916 c7 -8 15 -12 17 -11 5 6 -10 25 -20 25 -5 0 -4 -6 3 -14z"/>
<path d="M1640 4771 c0 -17 18 -21 24 -6 3 9 0 15 -9 15 -8 0 -15 -4 -15 -9z"/>
<path d="M1650 4729 c0 -5 5 -7 10 -4 6 3 10 8 10 11 0 2 -4 4 -10 4 -5 0 -10
-5 -10 -11z"/>
<path d="M1730 4430 c0 -60 4 -100 10 -100 6 0 10 -19 10 -42 0 -33 3 -40 11
-28 8 11 12 12 16 3 6 -16 43 -17 43 -2 0 14 123 7 143 -8 6 -5 34 -18 61 -28
37 -13 50 -15 56 -5 6 9 9 9 13 -1 5 -12 7 -11 16 1 7 10 9 -2 6 -45 -3 -32
-9 -61 -14 -64 -5 -3 -8 -17 -7 -31 1 -28 15 -30 95 -16 32 6 46 5 52 -5 6
-10 9 -3 9 20 0 32 -1 33 -18 18 -11 -10 -35 -17 -59 -17 l-41 0 13 55 c7 31
15 58 17 61 3 2 25 -3 49 -12 24 -9 58 -17 74 -18 33 -1 32 5 16 -106 -10 -72
-8 -80 20 -80 15 0 19 5 14 19 -3 11 -2 32 2 48 7 26 8 24 14 -22 9 -74 11
116 3 233 l-7 91 -76 25 c-42 13 -148 45 -236 71 -88 26 -189 55 -224 66 -35
10 -67 19 -72 19 -5 0 -9 -45 -9 -100z m607 -222 c-3 -7 -5 -2 -5 12 0 14 2
19 5 13 2 -7 2 -19 0 -25z"/>
<path d="M2091 4144 c0 -11 3 -14 6 -6 3 7 2 16 -1 19 -3 4 -6 -2 -5 -13z"/>
<path d="M2266 4114 c-9 -22 -8 -24 9 -24 8 0 15 9 15 20 0 24 -15 27 -24 4z"/>
<path d="M2157 4113 c-4 -3 -7 -11 -7 -17 0 -6 5 -5 12 2 6 6 9 14 7 17 -3 3
-9 2 -12 -2z"/>
<path d="M1230 5030 c-104 -5 -105 -5 -105 -30 0 -31 24 -35 182 -25 102 6
112 9 110 26 -6 37 -10 38 -187 29z"/>
<path d="M1180 4706 c0 -2 7 -7 16 -10 8 -3 12 -2 9 4 -6 10 -25 14 -25 6z"/>
<path d="M1325 4660 c11 -5 27 -9 35 -9 9 0 8 4 -5 9 -11 5 -27 9 -35 9 -9 0
-8 -4 5 -9z"/>
<path d="M1160 4611 c0 -61 7 -71 50 -71 20 0 50 -6 66 -14 16 -8 45 -16 64
-18 19 -1 38 -10 42 -18 5 -12 7 -12 7 3 1 28 21 19 23 -10 1 -16 4 -3 7 27 3
30 4 74 2 98 -2 33 -7 42 -22 42 -10 0 -19 -4 -19 -9 0 -5 -18 -5 -42 1 -24 5
-44 6 -45 1 -4 -10 -104 -9 -121 1 -9 5 -12 -4 -12 -33z"/>
<path d="M1208 4503 c7 -3 16 -2 19 1 4 3 -2 6 -13 5 -11 0 -14 -3 -6 -6z"/>
<path d="M1400 4338 c0 -23 3 -29 9 -19 8 12 4 51 -5 51 -2 0 -4 -15 -4 -32z"/>
<path d="M1181 4329 c-1 -34 1 -36 42 -45 25 -5 41 -14 40 -21 -4 -17 5 -16
23 2 17 17 13 24 -43 63 -38 27 -43 27 -44 5 -1 -12 -4 -10 -9 7 -7 23 -8 22
-9 -11z"/>
<path d="M1324 4305 c-18 -13 -16 -14 26 -14 42 0 44 1 26 14 -11 8 -23 15
-26 15 -3 0 -15 -7 -26 -15z"/>
<path d="M1191 4271 c-19 -12 -6 -42 14 -35 9 4 13 9 11 12 -3 3 -1 11 5 19
13 15 -7 18 -30 4z"/>
<path d="M6292 6340 c-1 -19 -5 -46 -7 -60 l-6 -25 11 25 c6 13 9 40 7 60 l-4
35 -1 -35z"/>
<path d="M6441 6344 c0 -11 3 -14 6 -6 3 7 2 16 -1 19 -3 4 -6 -2 -5 -13z"/>
<path d="M6553 6245 c0 -22 2 -30 4 -17 2 12 2 30 0 40 -3 9 -5 -1 -4 -23z"/>
<path d="M0 5925 l0 -75 41 0 42 0 -7 46 c-3 26 -6 60 -6 75 0 26 -3 29 -35
29 l-35 0 0 -75z"/>
<path d="M1 5095 c-1 -444 1 -475 30 -475 17 0 18 87 3 369 -30 583 -31 587
-33 106z"/>
<path d="M222 4830 c0 -14 2 -19 5 -12 2 6 2 18 0 25 -3 6 -5 1 -5 -13z"/>
<path d="M221 4754 c0 -11 3 -14 6 -6 3 7 2 16 -1 19 -3 4 -6 -2 -5 -13z"/>
<path d="M237 4693 c-11 -11 -8 -111 4 -118 6 -4 13 -4 17 0 3 3 0 10 -8 15
-13 9 -13 10 0 10 13 0 13 2 1 9 -10 7 -12 20 -7 50 6 41 5 47 -7 34z"/>
</g>
</svg>
